<mxfile host="65bd71144e">
    <diagram id="_iyd0RSueSTDXp5RRMF0" name="Страница 1">
        <mxGraphModel dx="768" dy="566" grid="1" gridSize="10" guides="1" tooltips="1" connect="1" arrows="1" fold="1" page="1" pageScale="1" pageWidth="827" pageHeight="1169" math="0" shadow="0">
            <root>
                <mxCell id="0"/>
                <mxCell id="1" parent="0"/>
                <mxCell id="11" value="" style="edgeStyle=none;html=1;" edge="1" parent="1" source="2" target="10">
                    <mxGeometry relative="1" as="geometry"/>
                </mxCell>
                <mxCell id="2" value="Start" style="rounded=1;whiteSpace=wrap;html=1;arcSize=50;fontSize=16;" parent="1" vertex="1">
                    <mxGeometry x="354" y="30" width="120" height="50" as="geometry"/>
                </mxCell>
                <mxCell id="13" value="" style="edgeStyle=none;html=1;" edge="1" parent="1" source="10" target="12">
                    <mxGeometry relative="1" as="geometry"/>
                </mxCell>
                <mxCell id="10" value="&lt;span style=&quot;font-size: 16px&quot;&gt;stringArray = [str, string, 123, ;-)]&lt;br&gt;sizeSA = stringArray.Length&lt;br&gt;&lt;/span&gt;" style="shape=parallelogram;perimeter=parallelogramPerimeter;whiteSpace=wrap;html=1;fixedSize=1;" vertex="1" parent="1">
                    <mxGeometry x="274" y="110" width="280" height="60" as="geometry"/>
                </mxCell>
                <mxCell id="15" value="" style="edgeStyle=none;html=1;fontSize=16;" edge="1" parent="1" source="12" target="14">
                    <mxGeometry relative="1" as="geometry"/>
                </mxCell>
                <mxCell id="12" value="i = 0&lt;br&gt;count = 0" style="whiteSpace=wrap;html=1;fontSize=16;" vertex="1" parent="1">
                    <mxGeometry x="354" y="200" width="120" height="50" as="geometry"/>
                </mxCell>
                <mxCell id="17" value="Yes" style="edgeStyle=none;html=1;fontSize=16;" edge="1" parent="1" source="14">
                    <mxGeometry relative="1" as="geometry">
                        <mxPoint x="414" y="410" as="targetPoint"/>
                    </mxGeometry>
                </mxCell>
                <mxCell id="26" value="No" style="edgeStyle=none;html=1;fontSize=16;" edge="1" parent="1" source="14" target="25">
                    <mxGeometry relative="1" as="geometry"/>
                </mxCell>
                <mxCell id="14" value="i &amp;lt; sizeSA ?" style="rhombus;whiteSpace=wrap;html=1;fontSize=16;" vertex="1" parent="1">
                    <mxGeometry x="324" y="280" width="180" height="80" as="geometry"/>
                </mxCell>
                <mxCell id="20" value="Yes" style="edgeStyle=none;html=1;fontSize=16;" edge="1" parent="1" source="18" target="19">
                    <mxGeometry relative="1" as="geometry"/>
                </mxCell>
                <mxCell id="22" value="No" style="edgeStyle=none;html=1;fontSize=16;" edge="1" parent="1" source="18" target="21">
                    <mxGeometry relative="1" as="geometry"/>
                </mxCell>
                <mxCell id="18" value="stringArray[i]&amp;nbsp; &amp;lt;= 3 symbols ?" style="rhombus;whiteSpace=wrap;html=1;fontSize=16;" vertex="1" parent="1">
                    <mxGeometry x="264" y="410" width="300" height="80" as="geometry"/>
                </mxCell>
                <mxCell id="23" style="edgeStyle=none;html=1;exitX=0;exitY=0.5;exitDx=0;exitDy=0;entryX=0.5;entryY=1;entryDx=0;entryDy=0;fontSize=16;" edge="1" parent="1" source="19" target="21">
                    <mxGeometry relative="1" as="geometry">
                        <Array as="points">
                            <mxPoint x="154" y="565"/>
                        </Array>
                    </mxGeometry>
                </mxCell>
                <mxCell id="19" value="count = count + 1" style="whiteSpace=wrap;html=1;fontSize=16;" vertex="1" parent="1">
                    <mxGeometry x="340" y="545" width="148" height="40" as="geometry"/>
                </mxCell>
                <mxCell id="24" style="edgeStyle=none;html=1;exitX=0.5;exitY=0;exitDx=0;exitDy=0;entryX=0;entryY=0.5;entryDx=0;entryDy=0;fontSize=16;" edge="1" parent="1" source="21" target="14">
                    <mxGeometry relative="1" as="geometry">
                        <Array as="points">
                            <mxPoint x="154" y="320"/>
                        </Array>
                    </mxGeometry>
                </mxCell>
                <mxCell id="21" value="i = i + 1" style="whiteSpace=wrap;html=1;fontSize=16;" vertex="1" parent="1">
                    <mxGeometry x="100" y="430" width="108" height="40" as="geometry"/>
                </mxCell>
                <mxCell id="45" style="edgeStyle=none;html=1;exitX=0.5;exitY=1;exitDx=0;exitDy=0;entryX=0.5;entryY=0;entryDx=0;entryDy=0;fontSize=16;" edge="1" parent="1" source="25" target="36">
                    <mxGeometry relative="1" as="geometry">
                        <Array as="points">
                            <mxPoint x="676" y="620"/>
                            <mxPoint x="414" y="620"/>
                        </Array>
                    </mxGeometry>
                </mxCell>
                <mxCell id="25" value="i = 0&lt;br&gt;newArray = []&lt;br&gt;sizeNA = count&lt;br&gt;j = 0" style="whiteSpace=wrap;html=1;fontSize=16;" vertex="1" parent="1">
                    <mxGeometry x="600" y="280" width="152" height="80" as="geometry"/>
                </mxCell>
                <mxCell id="35" value="Yes" style="edgeStyle=none;html=1;fontSize=16;" edge="1" parent="1" source="36">
                    <mxGeometry relative="1" as="geometry">
                        <mxPoint x="414" y="790" as="targetPoint"/>
                    </mxGeometry>
                </mxCell>
                <mxCell id="47" value="No" style="edgeStyle=none;html=1;fontSize=16;entryX=-0.005;entryY=0.39;entryDx=0;entryDy=0;entryPerimeter=0;" edge="1" parent="1" source="36" target="48">
                    <mxGeometry relative="1" as="geometry">
                        <mxPoint x="626" y="700" as="targetPoint"/>
                    </mxGeometry>
                </mxCell>
                <mxCell id="36" value="i &amp;lt; sizeSA ?&lt;br&gt;j &amp;lt; sizeNA ?" style="rhombus;whiteSpace=wrap;html=1;fontSize=16;" vertex="1" parent="1">
                    <mxGeometry x="290" y="660" width="248" height="80" as="geometry"/>
                </mxCell>
                <mxCell id="37" value="Yes" style="edgeStyle=none;html=1;fontSize=16;" edge="1" parent="1" source="39" target="41">
                    <mxGeometry relative="1" as="geometry"/>
                </mxCell>
                <mxCell id="38" value="No" style="edgeStyle=none;html=1;fontSize=16;" edge="1" parent="1" source="39" target="43">
                    <mxGeometry relative="1" as="geometry"/>
                </mxCell>
                <mxCell id="39" value="stringArray[i]&amp;nbsp; &amp;lt;= 3 symbols ?" style="rhombus;whiteSpace=wrap;html=1;fontSize=16;" vertex="1" parent="1">
                    <mxGeometry x="264" y="790" width="300" height="80" as="geometry"/>
                </mxCell>
                <mxCell id="40" style="edgeStyle=none;html=1;exitX=0;exitY=0.5;exitDx=0;exitDy=0;entryX=0.5;entryY=1;entryDx=0;entryDy=0;fontSize=16;" edge="1" parent="1" source="41" target="43">
                    <mxGeometry relative="1" as="geometry">
                        <Array as="points">
                            <mxPoint x="154" y="945"/>
                        </Array>
                    </mxGeometry>
                </mxCell>
                <mxCell id="41" value="newArray[j] = stringArray[i]&lt;br&gt;j = j + 1" style="whiteSpace=wrap;html=1;fontSize=16;" vertex="1" parent="1">
                    <mxGeometry x="308" y="910" width="212" height="70" as="geometry"/>
                </mxCell>
                <mxCell id="42" style="edgeStyle=none;html=1;exitX=0.5;exitY=0;exitDx=0;exitDy=0;entryX=0;entryY=0.5;entryDx=0;entryDy=0;fontSize=16;" edge="1" parent="1" source="43" target="36">
                    <mxGeometry relative="1" as="geometry">
                        <Array as="points">
                            <mxPoint x="154" y="700"/>
                        </Array>
                    </mxGeometry>
                </mxCell>
                <mxCell id="43" value="i = i + 1" style="whiteSpace=wrap;html=1;fontSize=16;" vertex="1" parent="1">
                    <mxGeometry x="100" y="810" width="108" height="40" as="geometry"/>
                </mxCell>
                <mxCell id="50" value="" style="edgeStyle=none;html=1;fontSize=16;exitX=0.5;exitY=0.875;exitDx=0;exitDy=0;exitPerimeter=0;" edge="1" parent="1" source="48" target="49">
                    <mxGeometry relative="1" as="geometry"/>
                </mxCell>
                <mxCell id="48" value="newArray[]" style="shape=document;whiteSpace=wrap;html=1;boundedLbl=1;fontSize=16;" vertex="1" parent="1">
                    <mxGeometry x="616" y="670" width="120" height="80" as="geometry"/>
                </mxCell>
                <mxCell id="49" value="End" style="rounded=1;whiteSpace=wrap;html=1;arcSize=50;fontSize=16;" vertex="1" parent="1">
                    <mxGeometry x="616" y="805" width="120" height="50" as="geometry"/>
                </mxCell>
            </root>
        </mxGraphModel>
    </diagram>
</mxfile>